# xmcd
#
# Track frame offsets:
#	150
#	16292
#	30606
#	45076
#	58198
#	72252
#	86149
#	101937
#	116566
#	131179
#	148423
#	163812
#	176176
#	193194
#	208213
#
# Disc length: 2961 seconds
#
# Revision: 1
# Processed by: cddbd v1.5.2PL0 Copyright (c) Steve Scherf et al.
# Submitted via: audiograbber 1.83.01
#
DISCID=eb0b8f0f
DTITLE=Various Artist - CDX 665
DYEAR=2018
DGENRE=Country
TTITLE0=Rachel Wammack - Damage
TTITLE1=Tenille Arts - I Hate This
TTITLE2=David Lee Murphy - I Won't Be Sorry
TTITLE3=Jon Pardi - Night Shift
TTITLE4=Luke Combs - She Got The Best Of Me
TTITLE5=Sarah Patrick - I Ain't No Angel
TTITLE6=Irish Bernadette - Love With A Broken Heart
TTITLE7=Calvin Lee ft. Trick Pony - My America
TTITLE8=Mike Watkins - Oh Say Can You See
TTITLE9=Katlyn Lowe - Rise Up
TTITLE10=Frank Ray - Tequila Mockingbird
TTITLE11=Mike Watkins - The Party's Over Here
TTITLE12=Benny Havens Band - When America Dreams (Radio Edit)
TTITLE13=Larry Stewart - What's That Cowgirl See In Me
TTITLE14=Duke Henry - You Can't Stay Here
EXTD=
EXTT0=
EXTT1=
EXTT2=
EXTT3=
EXTT4=
EXTT5=
EXTT6=
EXTT7=
EXTT8=
EXTT9=
EXTT10=
EXTT11=
EXTT12=
EXTT13=
EXTT14=
PLAYORDER=
